0
SECTION
2
HEADER
9
$INSUNITS
70
1
0
ENDSEC
0
SECTION
2
TABLES
0
TABLE
2
LAYER
0
ENDTAB
0
ENDSEC
0
SECTION
2
ENTITIES
0
LINE
8
front_outsideCutPath
10
0
20
4.125
11
0
21
2.70025
0
LINE
8
front_outsideCutPath
10
0
20
2.70025
11
0.236
21
2.70025
0
LINE
8
front_outsideCutPath
10
0.236
20
2.70025
11
0.236
21
1.54975
0
LINE
8
front_outsideCutPath
10
0.236
20
1.54975
11
0
21
1.54975
0
LINE
8
front_outsideCutPath
10
0
20
1.54975
11
0
21
0.39925
0
LINE
8
front_outsideCutPath
10
0
20
0.39925
11
0
21
0.125
0
LINE
8
front_outsideCutPath
10
0
20
0.125
11
1.12375
21
0.125
0
LINE
8
front_outsideCutPath
10
1.12375
20
0.125
11
1.12375
21
0.361
0
LINE
8
front_outsideCutPath
10
1.12375
20
0.361
11
2.27425
21
0.361
0
LINE
8
front_outsideCutPath
10
2.27425
20
0.361
11
2.27425
21
0.125
0
LINE
8
front_outsideCutPath
10
2.27425
20
0.125
11
3.42475
21
0.125
0
LINE
8
front_outsideCutPath
10
3.42475
20
0.125
11
3.42475
21
0.361
0
LINE
8
front_outsideCutPath
10
3.42475
20
0.361
11
4.57525
21
0.361
0
LINE
8
front_outsideCutPath
10
4.57525
20
0.361
11
4.57525
21
0.125
0
LINE
8
front_outsideCutPath
10
4.57525
20
0.125
11
5.72575
21
0.125
0
LINE
8
front_outsideCutPath
10
5.72575
20
0.125
11
5.72575
21
0.361
0
LINE
8
front_outsideCutPath
10
5.72575
20
0.361
11
6.87625
21
0.361
0
LINE
8
front_outsideCutPath
10
6.87625
20
0.361
11
6.87625
21
0.125
0
LINE
8
front_outsideCutPath
10
6.87625
20
0.125
11
8
21
0.125
0
LINE
8
front_outsideCutPath
10
8
20
0.125
11
8
21
1.54975
0
LINE
8
front_outsideCutPath
10
8
20
1.54975
11
7.764
21
1.54975
0
LINE
8
front_outsideCutPath
10
7.764
20
1.54975
11
7.764
21
2.70025
0
LINE
8
front_outsideCutPath
10
7.764
20
2.70025
11
8
21
2.70025
0
LINE
8
front_outsideCutPath
10
8
20
2.70025
11
8
21
3.85075
0
LINE
8
front_outsideCutPath
10
8
20
3.85075
11
8
21
4.125
0
LINE
8
front_outsideCutPath
10
8
20
4.125
11
6.87625
21
4.125
0
LINE
8
front_outsideCutPath
10
6.87625
20
4.125
11
6.87625
21
3.889
0
LINE
8
front_outsideCutPath
10
6.87625
20
3.889
11
5.72575
21
3.889
0
LINE
8
front_outsideCutPath
10
5.72575
20
3.889
11
5.72575
21
4.125
0
LINE
8
front_outsideCutPath
10
5.72575
20
4.125
11
4.57525
21
4.125
0
LINE
8
front_outsideCutPath
10
4.57525
20
4.125
11
4.57525
21
3.889
0
LINE
8
front_outsideCutPath
10
4.57525
20
3.889
11
3.42475
21
3.889
0
LINE
8
front_outsideCutPath
10
3.42475
20
3.889
11
3.42475
21
4.125
0
LINE
8
front_outsideCutPath
10
3.42475
20
4.125
11
2.27425
21
4.125
0
LINE
8
front_outsideCutPath
10
2.27425
20
4.125
11
2.27425
21
3.889
0
LINE
8
front_outsideCutPath
10
2.27425
20
3.889
11
1.12375
21
3.889
0
LINE
8
front_outsideCutPath
10
1.12375
20
3.889
11
1.12375
21
4.125
0
LINE
8
front_outsideCutPath
10
1.12375
20
4.125
11
0
21
4.125
0
LINE
8
left_outsideCutPath
10
8.361
20
4.125
11
8.361
21
2.70025
0
LINE
8
left_outsideCutPath
10
8.361
20
2.70025
11
8.125
21
2.70025
0
LINE
8
left_outsideCutPath
10
8.125
20
2.70025
11
8.125
21
1.54975
0
LINE
8
left_outsideCutPath
10
8.125
20
1.54975
11
8.361
21
1.54975
0
LINE
8
left_outsideCutPath
10
8.361
20
1.54975
11
8.361
21
0.39925
0
LINE
8
left_outsideCutPath
10
8.361
20
0.39925
11
8.361
21
0.125
0
LINE
8
left_outsideCutPath
10
8.361
20
0.125
11
8.79975
21
0.125
0
LINE
8
left_outsideCutPath
10
8.79975
20
0.125
11
8.79975
21
0.361
0
LINE
8
left_outsideCutPath
10
8.79975
20
0.361
11
9.95025
21
0.361
0
LINE
8
left_outsideCutPath
10
9.95025
20
0.361
11
9.95025
21
0.125
0
LINE
8
left_outsideCutPath
10
9.95025
20
0.125
11
10.389
21
0.125
0
LINE
8
left_outsideCutPath
10
10.389
20
0.125
11
10.389
21
1.54975
0
LINE
8
left_outsideCutPath
10
10.389
20
1.54975
11
10.625
21
1.54975
0
LINE
8
left_outsideCutPath
10
10.625
20
1.54975
11
10.625
21
2.70025
0
LINE
8
left_outsideCutPath
10
10.625
20
2.70025
11
10.389
21
2.70025
0
LINE
8
left_outsideCutPath
10
10.389
20
2.70025
11
10.389
21
3.85075
0
LINE
8
left_outsideCutPath
10
10.389
20
3.85075
11
10.389
21
4.125
0
LINE
8
left_outsideCutPath
10
10.389
20
4.125
11
9.95025
21
4.125
0
LINE
8
left_outsideCutPath
10
9.95025
20
4.125
11
9.95025
21
3.889
0
LINE
8
left_outsideCutPath
10
9.95025
20
3.889
11
8.79975
21
3.889
0
LINE
8
left_outsideCutPath
10
8.79975
20
3.889
11
8.79975
21
4.125
0
LINE
8
left_outsideCutPath
10
8.79975
20
4.125
11
8.361
21
4.125
0
LINE
8
top_outsideCutPath
10
10.986
20
2.389
11
10.986
21
1.95025
0
LINE
8
top_outsideCutPath
10
10.986
20
1.95025
11
10.75
21
1.95025
0
LINE
8
top_outsideCutPath
10
10.75
20
1.95025
11
10.75
21
0.79975
0
LINE
8
top_outsideCutPath
10
10.75
20
0.79975
11
10.986
21
0.79975
0
LINE
8
top_outsideCutPath
10
10.986
20
0.79975
11
10.986
21
0.361
0
LINE
8
top_outsideCutPath
10
10.986
20
0.361
11
11.87375
21
0.361
0
LINE
8
top_outsideCutPath
10
11.87375
20
0.361
11
11.87375
21
0.125
0
LINE
8
top_outsideCutPath
10
11.87375
20
0.125
11
13.02425
21
0.125
0
LINE
8
top_outsideCutPath
10
13.02425
20
0.125
11
13.02425
21
0.361
0
LINE
8
top_outsideCutPath
10
13.02425
20
0.361
11
14.17475
21
0.361
0
LINE
8
top_outsideCutPath
10
14.17475
20
0.361
11
14.17475
21
0.125
0
LINE
8
top_outsideCutPath
10
14.17475
20
0.125
11
15.32525
21
0.125
0
LINE
8
top_outsideCutPath
10
15.32525
20
0.125
11
15.32525
21
0.361
0
LINE
8
top_outsideCutPath
10
15.32525
20
0.361
11
16.47575
21
0.361
0
LINE
8
top_outsideCutPath
10
16.47575
20
0.361
11
16.47575
21
0.125
0
LINE
8
top_outsideCutPath
10
16.47575
20
0.125
11
17.62625
21
0.125
0
LINE
8
top_outsideCutPath
10
17.62625
20
0.125
11
17.62625
21
0.361
0
LINE
8
top_outsideCutPath
10
17.62625
20
0.361
11
18.514
21
0.361
0
LINE
8
top_outsideCutPath
10
18.514
20
0.361
11
18.514
21
0.79975
0
LINE
8
top_outsideCutPath
10
18.514
20
0.79975
11
18.75
21
0.79975
0
LINE
8
top_outsideCutPath
10
18.75
20
0.79975
11
18.75
21
1.95025
0
LINE
8
top_outsideCutPath
10
18.75
20
1.95025
11
18.514
21
1.95025
0
LINE
8
top_outsideCutPath
10
18.514
20
1.95025
11
18.514
21
2.389
0
LINE
8
top_outsideCutPath
10
18.514
20
2.389
11
17.62625
21
2.389
0
LINE
8
top_outsideCutPath
10
17.62625
20
2.389
11
17.62625
21
2.625
0
LINE
8
top_outsideCutPath
10
17.62625
20
2.625
11
16.47575
21
2.625
0
LINE
8
top_outsideCutPath
10
16.47575
20
2.625
11
16.47575
21
2.389
0
LINE
8
top_outsideCutPath
10
16.47575
20
2.389
11
15.32525
21
2.389
0
LINE
8
top_outsideCutPath
10
15.32525
20
2.389
11
15.32525
21
2.625
0
LINE
8
top_outsideCutPath
10
15.32525
20
2.625
11
14.17475
21
2.625
0
LINE
8
top_outsideCutPath
10
14.17475
20
2.625
11
14.17475
21
2.389
0
LINE
8
top_outsideCutPath
10
14.17475
20
2.389
11
13.02425
21
2.389
0
LINE
8
top_outsideCutPath
10
13.02425
20
2.389
11
13.02425
21
2.625
0
LINE
8
top_outsideCutPath
10
13.02425
20
2.625
11
11.87375
21
2.625
0
LINE
8
top_outsideCutPath
10
11.87375
20
2.625
11
11.87375
21
2.389
0
LINE
8
top_outsideCutPath
10
11.87375
20
2.389
11
10.986
21
2.389
0
LINE
8
back_outsideCutPath
10
0
20
8.25
11
0
21
6.82525
0
LINE
8
back_outsideCutPath
10
0
20
6.82525
11
0.236
21
6.82525
0
LINE
8
back_outsideCutPath
10
0.236
20
6.82525
11
0.236
21
5.67475
0
LINE
8
back_outsideCutPath
10
0.236
20
5.67475
11
0
21
5.67475
0
LINE
8
back_outsideCutPath
10
0
20
5.67475
11
0
21
4.52425
0
LINE
8
back_outsideCutPath
10
0
20
4.52425
11
0
21
4.25
0
LINE
8
back_outsideCutPath
10
0
20
4.25
11
1.12375
21
4.25
0
LINE
8
back_outsideCutPath
10
1.12375
20
4.25
11
1.12375
21
4.486
0
LINE
8
back_outsideCutPath
10
1.12375
20
4.486
11
2.27425
21
4.486
0
LINE
8
back_outsideCutPath
10
2.27425
20
4.486
11
2.27425
21
4.25
0
LINE
8
back_outsideCutPath
10
2.27425
20
4.25
11
3.42475
21
4.25
0
LINE
8
back_outsideCutPath
10
3.42475
20
4.25
11
3.42475
21
4.486
0
LINE
8
back_outsideCutPath
10
3.42475
20
4.486
11
4.57525
21
4.486
0
LINE
8
back_outsideCutPath
10
4.57525
20
4.486
11
4.57525
21
4.25
0
LINE
8
back_outsideCutPath
10
4.57525
20
4.25
11
5.72575
21
4.25
0
LINE
8
back_outsideCutPath
10
5.72575
20
4.25
11
5.72575
21
4.486
0
LINE
8
back_outsideCutPath
10
5.72575
20
4.486
11
6.87625
21
4.486
0
LINE
8
back_outsideCutPath
10
6.87625
20
4.486
11
6.87625
21
4.25
0
LINE
8
back_outsideCutPath
10
6.87625
20
4.25
11
8
21
4.25
0
LINE
8
back_outsideCutPath
10
8
20
4.25
11
8
21
5.67475
0
LINE
8
back_outsideCutPath
10
8
20
5.67475
11
7.764
21
5.67475
0
LINE
8
back_outsideCutPath
10
7.764
20
5.67475
11
7.764
21
6.82525
0
LINE
8
back_outsideCutPath
10
7.764
20
6.82525
11
8
21
6.82525
0
LINE
8
back_outsideCutPath
10
8
20
6.82525
11
8
21
7.97575
0
LINE
8
back_outsideCutPath
10
8
20
7.97575
11
8
21
8.25
0
LINE
8
back_outsideCutPath
10
8
20
8.25
11
6.87625
21
8.25
0
LINE
8
back_outsideCutPath
10
6.87625
20
8.25
11
6.87625
21
8.014
0
LINE
8
back_outsideCutPath
10
6.87625
20
8.014
11
5.72575
21
8.014
0
LINE
8
back_outsideCutPath
10
5.72575
20
8.014
11
5.72575
21
8.25
0
LINE
8
back_outsideCutPath
10
5.72575
20
8.25
11
4.57525
21
8.25
0
LINE
8
back_outsideCutPath
10
4.57525
20
8.25
11
4.57525
21
8.014
0
LINE
8
back_outsideCutPath
10
4.57525
20
8.014
11
3.42475
21
8.014
0
LINE
8
back_outsideCutPath
10
3.42475
20
8.014
11
3.42475
21
8.25
0
LINE
8
back_outsideCutPath
10
3.42475
20
8.25
11
2.27425
21
8.25
0
LINE
8
back_outsideCutPath
10
2.27425
20
8.25
11
2.27425
21
8.014
0
LINE
8
back_outsideCutPath
10
2.27425
20
8.014
11
1.12375
21
8.014
0
LINE
8
back_outsideCutPath
10
1.12375
20
8.014
11
1.12375
21
8.25
0
LINE
8
back_outsideCutPath
10
1.12375
20
8.25
11
0
21
8.25
0
LINE
8
right_outsideCutPath
10
8.361
20
8.25
11
8.361
21
6.82525
0
LINE
8
right_outsideCutPath
10
8.361
20
6.82525
11
8.125
21
6.82525
0
LINE
8
right_outsideCutPath
10
8.125
20
6.82525
11
8.125
21
5.67475
0
LINE
8
right_outsideCutPath
10
8.125
20
5.67475
11
8.361
21
5.67475
0
LINE
8
right_outsideCutPath
10
8.361
20
5.67475
11
8.361
21
4.52425
0
LINE
8
right_outsideCutPath
10
8.361
20
4.52425
11
8.361
21
4.25
0
LINE
8
right_outsideCutPath
10
8.361
20
4.25
11
8.79975
21
4.25
0
LINE
8
right_outsideCutPath
10
8.79975
20
4.25
11
8.79975
21
4.486
0
LINE
8
right_outsideCutPath
10
8.79975
20
4.486
11
9.95025
21
4.486
0
LINE
8
right_outsideCutPath
10
9.95025
20
4.486
11
9.95025
21
4.25
0
LINE
8
right_outsideCutPath
10
9.95025
20
4.25
11
10.389
21
4.25
0
LINE
8
right_outsideCutPath
10
10.389
20
4.25
11
10.389
21
5.67475
0
LINE
8
right_outsideCutPath
10
10.389
20
5.67475
11
10.625
21
5.67475
0
LINE
8
right_outsideCutPath
10
10.625
20
5.67475
11
10.625
21
6.82525
0
LINE
8
right_outsideCutPath
10
10.625
20
6.82525
11
10.389
21
6.82525
0
LINE
8
right_outsideCutPath
10
10.389
20
6.82525
11
10.389
21
7.97575
0
LINE
8
right_outsideCutPath
10
10.389
20
7.97575
11
10.389
21
8.25
0
LINE
8
right_outsideCutPath
10
10.389
20
8.25
11
9.95025
21
8.25
0
LINE
8
right_outsideCutPath
10
9.95025
20
8.25
11
9.95025
21
8.014
0
LINE
8
right_outsideCutPath
10
9.95025
20
8.014
11
8.79975
21
8.014
0
LINE
8
right_outsideCutPath
10
8.79975
20
8.014
11
8.79975
21
8.25
0
LINE
8
right_outsideCutPath
10
8.79975
20
8.25
11
8.361
21
8.25
0
LINE
8
bottom_outsideCutPath
10
10.986
20
5.014
11
10.986
21
4.57525
0
LINE
8
bottom_outsideCutPath
10
10.986
20
4.57525
11
10.75
21
4.57525
0
LINE
8
bottom_outsideCutPath
10
10.75
20
4.57525
11
10.75
21
3.42475
0
LINE
8
bottom_outsideCutPath
10
10.75
20
3.42475
11
10.986
21
3.42475
0
LINE
8
bottom_outsideCutPath
10
10.986
20
3.42475
11
10.986
21
2.986
0
LINE
8
bottom_outsideCutPath
10
10.986
20
2.986
11
11.87375
21
2.986
0
LINE
8
bottom_outsideCutPath
10
11.87375
20
2.986
11
11.87375
21
2.75
0
LINE
8
bottom_outsideCutPath
10
11.87375
20
2.75
11
13.02425
21
2.75
0
LINE
8
bottom_outsideCutPath
10
13.02425
20
2.75
11
13.02425
21
2.986
0
LINE
8
bottom_outsideCutPath
10
13.02425
20
2.986
11
14.17475
21
2.986
0
LINE
8
bottom_outsideCutPath
10
14.17475
20
2.986
11
14.17475
21
2.75
0
LINE
8
bottom_outsideCutPath
10
14.17475
20
2.75
11
15.32525
21
2.75
0
LINE
8
bottom_outsideCutPath
10
15.32525
20
2.75
11
15.32525
21
2.986
0
LINE
8
bottom_outsideCutPath
10
15.32525
20
2.986
11
16.47575
21
2.986
0
LINE
8
bottom_outsideCutPath
10
16.47575
20
2.986
11
16.47575
21
2.75
0
LINE
8
bottom_outsideCutPath
10
16.47575
20
2.75
11
17.62625
21
2.75
0
LINE
8
bottom_outsideCutPath
10
17.62625
20
2.75
11
17.62625
21
2.986
0
LINE
8
bottom_outsideCutPath
10
17.62625
20
2.986
11
18.514
21
2.986
0
LINE
8
bottom_outsideCutPath
10
18.514
20
2.986
11
18.514
21
3.42475
0
LINE
8
bottom_outsideCutPath
10
18.514
20
3.42475
11
18.75
21
3.42475
0
LINE
8
bottom_outsideCutPath
10
18.75
20
3.42475
11
18.75
21
4.57525
0
LINE
8
bottom_outsideCutPath
10
18.75
20
4.57525
11
18.514
21
4.57525
0
LINE
8
bottom_outsideCutPath
10
18.514
20
4.57525
11
18.514
21
5.014
0
LINE
8
bottom_outsideCutPath
10
18.514
20
5.014
11
17.62625
21
5.014
0
LINE
8
bottom_outsideCutPath
10
17.62625
20
5.014
11
17.62625
21
5.25
0
LINE
8
bottom_outsideCutPath
10
17.62625
20
5.25
11
16.47575
21
5.25
0
LINE
8
bottom_outsideCutPath
10
16.47575
20
5.25
11
16.47575
21
5.014
0
LINE
8
bottom_outsideCutPath
10
16.47575
20
5.014
11
15.32525
21
5.014
0
LINE
8
bottom_outsideCutPath
10
15.32525
20
5.014
11
15.32525
21
5.25
0
LINE
8
bottom_outsideCutPath
10
15.32525
20
5.25
11
14.17475
21
5.25
0
LINE
8
bottom_outsideCutPath
10
14.17475
20
5.25
11
14.17475
21
5.014
0
LINE
8
bottom_outsideCutPath
10
14.17475
20
5.014
11
13.02425
21
5.014
0
LINE
8
bottom_outsideCutPath
10
13.02425
20
5.014
11
13.02425
21
5.25
0
LINE
8
bottom_outsideCutPath
10
13.02425
20
5.25
11
11.87375
21
5.25
0
LINE
8
bottom_outsideCutPath
10
11.87375
20
5.25
11
11.87375
21
5.014
0
LINE
8
bottom_outsideCutPath
10
11.87375
20
5.014
11
10.986
21
5.014
0
ENDSEC
0
EOF